<svg viewBox="0 0 200 90"
     class="logo site-header__logo"
     aria-labelledby="logo__title"
     xmlns="http://www.w3.org/2000/svg">
  <title id="logo__title">Tas Kafé</title>
  <polygon class="logo__bottom-bar" points="0 90 200 90 200 80 0 80"></polygon>
  <g class="logo__text" transform="translate(8, 20)">
    <path d="M23.3075893,38.75125 L23.153125,30.3485714 L23.153125,10.02625 L30.1138393,10.3878571 C33.2111607,10.5932143 34.6540179,13.12 35.3236607,16.4753571 C35.8388393,16.5253571 36.1486607,16.4753571 36.921875,16.32 L36.921875,6.93160714 L0.615625,6.93160714 L0.615625,16.32 C1.39151786,16.4753571 1.69955357,16.5253571 2.21473214,16.4753571 C2.834375,13.3298214 4.12544643,10.5423214 6.85669643,10.3878571 L14.3334821,10.02625 L14.3334821,30.3485714 L14.1790179,38.5976786 C14.1290179,40.9691071 13.7174107,42.1039286 12.3763393,42.5173214 L9.07366071,43.5494643 C9.02276786,44.2726786 9.12723214,44.1191071 9.228125,44.9423214 L28.1022321,44.9423214 C28.2058036,44.2726786 28.2566964,44.2191071 28.2566964,43.5494643 L25.1120536,42.5664286 C23.978125,42.2075 23.4102679,41.4333929 23.3075893,38.75125"></path>
    <path d="M44.7640179,38.75125 C43.3711607,39.2673214 42.081875,39.5789286 40.0202679,39.5789286 C38.3202679,39.5789286 37.3363393,38.3405357 37.3363393,36.7396429 C37.3363393,34.5226786 39.6586607,33.4941071 42.081875,33.02625 L44.7640179,32.5128571 L44.7640179,38.75125 Z M64.0899107,22.7128571 C64.0899107,20.8083929 65.0702679,19.3083929 67.6461607,19.3083929 C73.0140179,19.3083929 74.6104464,21.9932143 75.5372321,25.18875 L77.4470536,25.2923214 L78.3238393,18.4869643 C74.9202679,16.6798214 72.4452679,16.1628571 67.8024107,16.1628571 C61.8720536,16.1628571 56.3024107,19.8253571 56.3024107,25.3985714 C56.3024107,34.9369643 69.9684821,34.6271429 69.9684821,39.11375 C69.9684821,40.8173214 68.5765179,42.2075 65.9470536,42.2075 C62.3363393,42.2075 58.5175893,40.1441071 57.4872321,35.8119643 L55.425625,35.8119643 L55.0791964,40.76375 L53.6854464,40.76375 L53.3238393,30.8110714 L53.3238393,24.5173214 C53.3238393,17.6101786 47.7559821,16.1628571 43.1658036,16.1628571 C37.8015179,16.1628571 32.5925893,19.4119643 30.8408036,21.1146429 L31.7166964,23.0735714 C34.9658036,22.3021429 37.2354464,22.1458929 38.9899107,22.1458929 C42.650625,22.1458929 44.7640179,23.2816071 44.7640179,26.3789286 L44.7640179,30.1405357 C43.3202679,30.295 41.7220536,30.45125 40.1238393,30.6557143 C34.450625,31.4298214 28.7765179,32.9244643 28.7765179,39.4753571 C28.7765179,42.6208929 31.2524107,45.4066071 35.9452679,45.4066071 C40.0711607,45.4066071 42.9604464,42.9833929 44.919375,40.3503571 C45.2291964,43.9619643 46.7238393,45.4066071 50.6452679,45.4066071 C52.206875,45.4066071 54.0497321,44.6708929 55.7586607,43.4958929 C59.0158036,44.8592857 61.9675893,45.6110714 66.050625,45.6110714 C71.4140179,45.6110714 78.7899107,42.8253571 78.7899107,35.9182143 C78.7899107,26.9432143 64.0899107,26.9958929 64.0899107,22.7128571 L64.0899107,22.7128571 Z"></path>
    <path d="M183.046161,3.41883929 C182.002411,5.09830357 180.879196,6.63669643 179.677411,8.03491071 C178.474732,9.43044643 177.139911,10.7679464 175.672054,12.0509821 L177.625625,14.3241964 C178.477411,13.7795536 179.339018,13.1849107 180.203304,12.5420536 C181.071161,11.8983036 181.897946,11.2375893 182.689018,10.5572321 C183.477411,9.87508929 184.227411,9.19116071 184.937232,8.501875 C185.647946,7.81169643 186.280982,7.12776786 186.831875,6.45366071 L183.046161,3.41883929 Z"></path>
    <path d="M128.467679,38.8671429 C127.074821,39.3805357 125.785536,39.69125 123.722143,39.69125 C122.019464,39.69125 121.04,38.4528571 121.04,36.8546429 C121.04,34.6376786 123.360536,33.6055357 125.785536,33.14125 L128.467679,32.6260714 L128.467679,38.8671429 Z M152.289107,42.3733929 C150.742679,42.0108929 150.020357,41.4475 149.969464,39.8948214 L149.761429,30.41 L149.761429,19.8894643 L155.898929,19.8894643 L155.898929,16.8957143 L149.761429,16.8957143 L149.761429,7.71357143 C149.761429,4.98053571 151.72125,3.74571429 154.55875,3.74571429 C155.692679,3.74571429 157.444464,6.22071429 159.198036,8.44035714 C160.901607,7.76714286 162.550714,6.94214286 162.550714,4.77696429 C162.550714,1.99035714 160.591786,0.288571429 154.248929,0.288571429 C148.524821,0.288571429 141.250714,6.735 141.250714,12.5135714 L141.250714,16.8957143 L137.126607,17.8260714 L137.126607,19.8894643 L141.250714,19.8894643 L141.250714,30.41 L141.149821,39.69125 C141.149821,40.17875 141.106071,40.6135714 141.019464,41.00375 L140.998929,40.8769643 L137.39,40.8769643 L137.028393,30.9242857 L137.028393,24.6332143 C137.028393,17.7225 131.45875,16.2769643 126.867679,16.2769643 C121.506964,16.2769643 116.294464,19.5260714 114.541786,21.22875 L115.420357,23.19125 C118.668571,22.41625 120.938214,22.2582143 122.691786,22.2582143 C126.354286,22.2582143 128.467679,23.3939286 128.467679,26.4876786 L128.467679,30.2528571 C127.023036,30.41 125.424821,30.5644643 123.823929,30.7698214 C119.173929,31.4064286 114.5275,32.5278571 113.0025,36.5225 C112.059643,35.52875 111.147143,34.5171429 110.278393,33.5028571 L102.130179,23.7064286 L119.304286,8.54035714 L119.304286,7.04571429 L104.812321,7.04571429 C104.70875,7.56089286 104.656964,8.07964286 104.656964,8.54035714 L106.204286,9.21357143 C107.492679,9.77964286 108.5775,10.5019643 108.5775,11.8421429 C108.5775,13.1341071 106.925714,14.7305357 106.306071,15.2992857 L96.1980357,24.9421429 L96.1980357,12.4608929 C96.1980357,10.4483929 96.5605357,9.83232143 98.0560714,9.26446429 L99.8605357,8.54035714 C99.8605357,8.02517857 99.80875,7.50910714 99.7596429,7.04571429 L82.8944643,7.04571429 C82.7408929,7.66267857 82.6891071,8.02517857 82.6891071,8.54035714 L85.5748214,9.41982143 C86.865,9.77964286 87.3810714,10.7064286 87.3810714,12.4608929 L87.3810714,30.0483929 L87.2266071,39.5376786 C87.1757143,41.6001786 86.5560714,42.3198214 85.0614286,42.7858929 L82.7408929,43.5591071 C82.7408929,44.1769643 82.6891071,44.3841071 82.8417857,45.0555357 L99.7060714,45.0555357 C99.8605357,44.435 99.9096429,44.0751786 99.9096429,43.5591071 L97.9016071,42.735 C96.665,42.2207143 96.4051786,41.4966071 96.3533929,39.7421429 L96.1980357,29.9957143 L96.1980357,28.4483929 L106.979286,41.6492857 C109.959643,45.3055357 114.922143,45.4698214 118.08375,45.4046429 C118.574821,45.4778571 119.093571,45.5198214 119.64625,45.5198214 C123.774821,45.5198214 126.662321,43.0975 128.62125,40.4653571 C128.930179,44.0751786 130.426607,45.5198214 134.347143,45.5198214 C135.264107,45.5198214 136.278393,45.2555357 137.304286,44.8091071 C137.316786,44.89125 137.317679,44.9760714 137.332857,45.0555357 L156.466786,45.0555357 C156.725714,44.435 156.67125,43.9189286 156.67125,43.3528571 L152.289107,42.3733929 Z"></path>
    <path d="M162.985625,27.5207143 C163.246339,22.2082143 164.791875,19.785 167.783839,19.785 C170.774911,19.785 172.835625,22.6742857 172.835625,27.5207143 L162.985625,27.5207143 Z M169.483839,16.2769643 C160.357946,16.2769643 154.374018,24.2216071 154.374018,32.16 C154.374018,40.8260714 159.376696,45.4180357 169.018661,45.4180357 C174.694554,45.4180357 179.129375,42.6814286 181.602589,39.1216071 L180.727589,37.62875 C176.962411,38.4528571 174.332946,38.6064286 172.477589,38.6064286 C167.165982,38.6064286 163.657946,36.0814286 163.090089,30.51 L181.809732,30.51 L181.809732,29.4305357 C181.809732,22.7251786 177.890089,16.2769643 169.483839,16.2769643 L169.483839,16.2769643 Z"></path>
  </g>
  <polygon class="logo__top-bar" points="0 10 200 10 200 0 0 0"></polygon>
</svg>
